<svg xmlns="http://www.w3.org/2000/svg" width="34" height="34" viewBox="0 0 34 34">
  <g id="Group_371" data-name="Group 371" transform="translate(0.001 -0.478)">
    <g id="Ellipse_18" data-name="Ellipse 18" transform="translate(-0.001 0.478)" fill="none" stroke="#fff" stroke-width="1">
      <circle cx="17" cy="17" r="17" stroke="none"/>
      <circle cx="17" cy="17" r="16.5" fill="none"/>
    </g>
    <path id="Icon_awesome-linkedin-in" data-name="Icon awesome-linkedin-in" d="M2.935,13.114H.217V4.359H2.935ZM1.575,3.165A1.582,1.582,0,1,1,3.149,1.575,1.588,1.588,0,0,1,1.575,3.165Zm11.537,9.95H10.4V8.852c0-1.016-.02-2.318-1.414-2.318-1.414,0-1.63,1.1-1.63,2.245v4.335H4.638V4.359H7.246V5.553h.038A2.857,2.857,0,0,1,9.857,4.14c2.752,0,3.257,1.812,3.257,4.165v4.809Z" transform="translate(10.36 10.359)" fill="#fff"/>
  </g>
</svg>
