<svg id="Group_472" data-name="Group 472" xmlns="http://www.w3.org/2000/svg" xmlns:xlink="http://www.w3.org/1999/xlink" width="56.79" height="57.509" viewBox="0 0 56.79 57.509">
  <defs>
    <clipPath id="clip-path">
      <rect id="Rectangle_67" data-name="Rectangle 67" width="56.79" height="57.509" fill="#002078"/>
    </clipPath>
  </defs>
  <g id="Group_471" data-name="Group 471" clip-path="url(#clip-path)">
    <path id="Path_3857" data-name="Path 3857" d="M49.5,55.566H53.25v-13.4H25.336c-1.123,0-1.386-.269-1.387-1.413,0-.519-.014-1.039,0-1.557a.94.94,0,0,1,1.88,0c.016.333,0,.669,0,1.03h17.04v-.568c0-5.85.01-11.7,0-17.55a8.513,8.513,0,0,0-9.064-8.671,8.3,8.3,0,0,0-4.3,1.505c-.612.422-1.094.356-1.445-.146a.912.912,0,0,1,.313-1.382,9.446,9.446,0,0,1,5.458-1.882c6.8-.048,13.6-.028,20.407-.027a.913.913,0,0,1,1.015.984c-.019.587-.4.923-1.076.923q-6.507.005-13.013,0H40.39c.224.195.347.305.474.412a10.431,10.431,0,0,1,3.9,8.3c.018,5.77,0,11.54.005,17.311v.767H75.057v-.614q0-8.655,0-17.311a8.518,8.518,0,0,0-8.713-8.866c-2.267-.008-4.535,0-6.8,0h-.574v.52c0,2.256.009,4.512-.009,6.768a.617.617,0,0,0,.463.686,3.812,3.812,0,1,1-5.175,3.341,3.7,3.7,0,0,1,2.271-3.307c.176-.084.358-.156.557-.242v-.729q0-9.524,0-19.048c0-1.141.261-1.4,1.392-1.4q3.874,0,7.749,0c.967,0,1.268.306,1.269,1.289q0,2.576,0,5.151c0,.9-.324,1.224-1.213,1.226q-2.1.006-4.2,0c-.811,0-1.218-.333-1.209-.972s.409-.942,1.238-.943c1.14,0,2.28,0,3.455,0v-3.8H59.008V11.5h.634c2.287,0,4.574-.012,6.861,0a10.547,10.547,0,0,1,10.437,10.52q.021,9.434.008,18.868c0,.969-.309,1.274-1.285,1.274H55.18v.724q0,6.619,0,13.237c0,1.1-.277,1.377-1.363,1.378-1.676,0-3.352,0-5.028,0-.849,0-1.179-.338-1.18-1.2q0-5.511,0-11.021c0-.787.318-1.185.931-1.193.629-.008.959.406.96,1.226q0,4.762,0,9.524ZM57.99,23a1.915,1.915,0,1,0,1.92,1.858A1.9,1.9,0,0,0,57.99,23" transform="translate(-20.161 0)" fill="#002078"/>
    <path id="Path_3858" data-name="Path 3858" d="M3.534,109.72l9.715,8.324c1.017-.869,2.023-1.726,3.027-2.586.949-.812,1.892-1.63,2.845-2.437.559-.473,1.065-.474,1.456-.028.408.466.33.992-.245,1.492-.942.82-1.895,1.627-2.841,2.441-.161.139-.315.286-.516.469l2.73,2.348c.24.207.487.406.72.622a.941.941,0,0,1,.152,1.415.907.907,0,0,1-1.366.041c-.732-.607-1.448-1.234-2.171-1.852l-1.549-1.323c-.48.41-.954.82-1.433,1.224a1.01,1.01,0,0,1-1.613,0c-.466-.4-.93-.794-1.431-1.222l-7.475,6.411H19.584c.177,0,.356-.009.532,0a.927.927,0,0,1,.912.975.907.907,0,0,1-.9.926c-.57.028-1.143.011-1.715.011q-7.72,0-15.439,0C1,126.971,0,125.954,0,123.951q0-6.649,0-13.3a2.6,2.6,0,0,1,2.786-2.847q7.6-.007,15.2,0c.9,0,1.387.654,1.044,1.385a.993.993,0,0,1-1.036.533c-1.853-.006-3.707,0-5.56,0h-8.9ZM1.913,123.935l7.638-6.548-7.638-6.54Z" transform="translate(0 -90.551)" fill="#002078"/>
  </g>
</svg>
