<svg xmlns="http://www.w3.org/2000/svg" xmlns:xlink="http://www.w3.org/1999/xlink" width="39.469" height="44.984" viewBox="0 0 39.469 44.984">
  <defs>
    <clipPath id="clip-path">
      <rect id="Rectangle_69" data-name="Rectangle 69" width="39.469" height="44.984" fill="#002078"/>
    </clipPath>
  </defs>
  <g id="Group_485" data-name="Group 485" clip-path="url(#clip-path)">
    <path id="Path_3859" data-name="Path 3859" d="M15.49,22.53q0,8.935,0,17.871c0,2.3-1.719,4.1-4.289,4.526a4.606,4.606,0,0,1-.745.05c-1.8,0-3.6.012-5.4,0C2.293,44.96.026,42.968.007,40.55,0,39.053,0,37.556.006,36.059a1.6,1.6,0,0,1,1.76-1.622A1.612,1.612,0,0,1,3.5,36.087c0,1.356,0,2.713,0,4.069,0,1.177.667,1.76,2.007,1.764q2.248.006,4.494,0c1.311,0,1.982-.59,1.982-1.738q.005-17.683,0-35.367c0-1.171-.673-1.748-2.02-1.751q-2.222-.006-4.441,0c-1.376,0-2.023.574-2.023,1.79q0,11.742,0,23.484A1.637,1.637,0,0,1,1.578,30,1.646,1.646,0,0,1,.011,28.636C0,28.527,0,28.417,0,28.308Q0,16.449.006,4.59C.007,2.3,1.675.527,4.236.069a4.69,4.69,0,0,1,.8-.062c1.8-.005,3.6-.012,5.4,0,2.761.017,5.044,2,5.049,4.42q.017,9.051,0,18.1" transform="translate(0 0)" fill="#002078"/>
    <path id="Path_3860" data-name="Path 3860" d="M20.963,22.472q0-8.936,0-17.87c0-2.308,1.686-4.1,4.269-4.541a4.386,4.386,0,0,1,.743-.054c1.82,0,3.64-.013,5.458,0,2.7.019,4.987,2.011,5.009,4.361.017,2.027.009,4.054,0,6.081A1.6,1.6,0,0,1,34.7,12.043a1.619,1.619,0,0,1-1.752-1.588c-.007-1.856,0-3.712,0-5.567,0-1.267-.642-1.823-2.1-1.825s-2.925,0-4.388,0c-1.341,0-2,.582-2,1.765q0,17.659,0,35.32c0,1.2.665,1.769,2.052,1.771q2.167,0,4.334,0c1.458,0,2.1-.556,2.1-1.824q0-10.876,0-21.754a3.1,3.1,0,0,1,.039-.7,1.7,1.7,0,0,1,1.866-1.169,1.623,1.623,0,0,1,1.589,1.4c.007.093,0,.187,0,.281q0,11.133,0,22.268c0,2.27-1.709,4.066-4.26,4.5a4.516,4.516,0,0,1-.745.056c-1.819,0-3.638.013-5.457,0-2.722-.019-5.013-2.016-5.018-4.4-.013-6.034,0-12.069,0-18.1" transform="translate(3.015 0)" fill="#002078"/>
  </g>
</svg>
