<svg id="Group_488" data-name="Group 488" xmlns="http://www.w3.org/2000/svg" xmlns:xlink="http://www.w3.org/1999/xlink" width="50.97" height="57.594" viewBox="0 0 50.97 57.594">
  <defs>
    <clipPath id="clip-path">
      <rect id="Rectangle_70" data-name="Rectangle 70" width="50.97" height="57.594" fill="#002078"/>
    </clipPath>
  </defs>
  <g id="Group_487" data-name="Group 487" clip-path="url(#clip-path)">
    <path id="Path_3861" data-name="Path 3861" d="M32.429,0a21.192,21.192,0,0,1,2.153,1.856,8.9,8.9,0,0,1,1.046.958,6.81,6.81,0,0,0,4.278,2.225c1.194.2,2.353.571,3.534.84a1.286,1.286,0,0,1,1.066.968c.445,1.578.927,3.147,1.371,4.726a2.573,2.573,0,0,0,.816,1.287c1.246,1.1,2.444,2.237,3.7,3.327a1.357,1.357,0,0,1,.491,1.606c-.512,1.6-.955,3.218-1.439,4.825a1.65,1.65,0,0,0,0,.992c.482,1.608.93,3.224,1.427,4.828a1.342,1.342,0,0,1-.449,1.572c-1.265,1.1-2.485,2.252-3.742,3.364a2.489,2.489,0,0,0-.8,1.23c-.432,1.542-.927,3.07-1.346,4.615a1.491,1.491,0,0,1-1.315,1.17c-.4.073-.8.2-1.2.279-.493.092-.532.289-.289.662.852,1.306,1.679,2.625,2.516,3.939q2.047,3.212,4.093,6.423a1.9,1.9,0,0,1,.214.4.846.846,0,0,1-.1.958,1.082,1.082,0,0,1-1.086.225q-2.035-.494-4.071-.983a6.724,6.724,0,0,1-.776-.192c-.538-.2-.723.02-.848.469-.391,1.4-.825,2.784-1.225,4.179a1.448,1.448,0,0,1-.567.843h-.869a17.523,17.523,0,0,1-2.227-3.231c-1.659-2.55-3.282-5.12-4.9-7.693a1.449,1.449,0,0,0-.992-.676c-1.142-.26-2.277-.547-3.41-.837-.715-.183-1.035-.608-.89-1.137s.671-.766,1.394-.6c1,.225,2,.46,2.989.74a1.2,1.2,0,0,0,1.31-.311c1.142-1.085,2.337-2.123,3.5-3.19a2.7,2.7,0,0,1,1.265-.662c1.642-.379,3.272-.8,4.915-1.175a.974.974,0,0,0,.845-.761c.4-1.472.862-2.932,1.282-4.4a2.548,2.548,0,0,1,.8-1.242c1.2-1.061,2.36-2.155,3.568-3.207a.824.824,0,0,0,.284-.994c-.452-1.461-.863-2.932-1.31-4.393a2.262,2.262,0,0,1-.009-1.379c.467-1.515.893-3.041,1.369-4.554a.7.7,0,0,0-.262-.837c-1.268-1.13-2.515-2.28-3.776-3.416a1.882,1.882,0,0,1-.581-.907c-.441-1.541-.913-3.075-1.348-4.617a.891.891,0,0,0-.757-.7c-1.662-.382-3.314-.8-4.973-1.2a2.715,2.715,0,0,1-1.26-.672c-1.185-1.1-2.4-2.172-3.584-3.272a1.007,1.007,0,0,0-1.048-.261c-1.612.409-3.235.779-4.848,1.181a3.134,3.134,0,0,1-1.582.013c-1.611-.41-3.239-.769-4.845-1.193a1.152,1.152,0,0,0-1.243.318c-1.145,1.082-2.341,2.119-3.5,3.192a2.809,2.809,0,0,1-1.318.688C12.236,6.587,10.625,7,9,7.366a.971.971,0,0,0-.839.767c-.406,1.472-.863,2.932-1.283,4.4a2.44,2.44,0,0,1-.767,1.191C4.9,14.8,3.722,15.905,2.5,16.97a.815.815,0,0,0-.28.99c.47,1.515.9,3.039,1.356,4.557a1.839,1.839,0,0,1,0,1.1c-.46,1.517-.893,3.041-1.364,4.555a.82.82,0,0,0,.284.991c1.191,1.04,2.335,2.125,3.522,3.17a2.784,2.784,0,0,1,.873,1.39c.4,1.434.847,2.858,1.239,4.294a.963.963,0,0,0,.833.765c1.683.383,3.352.816,5.031,1.215a2.412,2.412,0,0,1,1.1.587c1.178,1.079,2.38,2.138,3.541,3.232a1.175,1.175,0,0,0,1.3.329c1.02-.3,2.069-.523,3.111-.761.7-.161,1.216.077,1.381.611.153.494-.16.943-.838,1.119-1.132.294-2.268.579-3.413.828a1.487,1.487,0,0,0-1.03.712q-3.156,5-6.345,9.988a2.338,2.338,0,0,1-.849.947h-.744a1.473,1.473,0,0,1-.667-.973c-.4-1.376-.829-2.745-1.215-4.124-.12-.427-.306-.531-.784-.406-1.488.389-2.989.737-4.487,1.1a3.488,3.488,0,0,1-.728.125c-.691.014-1.079-.431-.9-1.036a2.688,2.688,0,0,1,.323-.664Q5.9,46.643,9.069,41.68c.093-.146.173-.3.279-.438.256-.333.135-.492-.273-.575-.523-.108-1.037-.255-1.56-.364a1.274,1.274,0,0,1-1.064-.973C6,37.753,5.521,36.184,5.077,34.606A2.476,2.476,0,0,0,4.3,33.365c-1.23-1.084-2.414-2.211-3.651-3.288a1.5,1.5,0,0,1-.534-1.805c.5-1.467.882-2.964,1.345-4.441a2.471,2.471,0,0,0,0-1.54C.978,20.76.556,19.214.08,17.683a1.25,1.25,0,0,1,.435-1.464c1.338-1.171,2.636-2.38,3.959-3.565a1.766,1.766,0,0,0,.547-.858c.468-1.63.975-3.252,1.432-4.885a1.461,1.461,0,0,1,1.233-1.1c1.723-.39,3.431-.833,5.154-1.227A2.847,2.847,0,0,0,14.2,3.856c1.2-1.113,2.42-2.2,3.638-3.3.219-.2.463-.372.7-.557h.993c1.9.558,3.84.978,5.771,1.431a1.245,1.245,0,0,0,.55-.016C27.753.955,29.679.553,31.56,0ZM45.42,50.927c0-.115.008-.138,0-.151q-2.922-4.6-5.845-9.2a.366.366,0,0,0-.449-.2c-.535.141-1.087.241-1.609.414-.568.189-.662.484-.364.954.731,1.153,1.471,2.3,2.2,3.456a3.255,3.255,0,0,1,.4.757.783.783,0,0,1-.411,1.022.989.989,0,0,1-1.229-.214,5.153,5.153,0,0,1-.546-.747c-.636-.987-1.275-1.972-1.887-2.971-.211-.345-.387-.381-.684-.089A13.124,13.124,0,0,1,33.85,44.98a.611.611,0,0,0-.142.968c1.02,1.564,2.008,3.146,3.01,4.719.751,1.178,1.506,2.354,2.272,3.551a1.129,1.129,0,0,0,.335-.7c.252-.811.478-1.628.725-2.441.336-1.108.667-1.282,1.868-.995,1.152.276,2.3.556,3.5.844M11.906,54.2c.287-.1.327-.3.426-.459,1.4-2.188,2.8-4.375,4.188-6.572.355-.564,1.079-1.142.929-1.709-.145-.55-.937-.949-1.414-1.44-.341-.351-.514-.287-.75.1-.68,1.115-1.4,2.21-2.1,3.313a1.051,1.051,0,0,1-1.1.577.855.855,0,0,1-.662-1.4q1.207-1.964,2.474-3.9c.219-.334.143-.538-.155-.762a4.851,4.851,0,0,0-1.435-.493.751.751,0,0,0-1.038.364C9.5,44.642,7.7,47.443,5.919,50.253c-.118.186-.308.353-.288.6.2.1.372-.021.541-.06,1.1-.257,2.194-.536,3.295-.793a1.043,1.043,0,0,1,1.392.69c.073.195.118.4.177.6l.871,2.917" transform="translate(0)" fill="#002078"/>
    <path id="Path_3862" data-name="Path 3862" d="M61.465,43.184c9.349-.01,17.157,6.173,18.339,14.392,1.306,9.08-5.549,17.287-15.579,18.654-9.642,1.313-18.956-4.771-20.619-13.467a11.711,11.711,0,0,1-.26-2.288.923.923,0,0,1,.9-1.021A.956.956,0,0,1,45.3,60.4a13.907,13.907,0,0,0,2.855,7.736,16.261,16.261,0,0,0,11.585,6.329c8.923.934,16.874-4.625,18.082-12.692C79.06,53.5,72.685,46.277,64,45.159,55.5,44.065,47.822,48.821,45.746,56.4c-.257.937-.664,1.277-1.352,1.127-.649-.141-.837-.654-.584-1.585,1.827-6.708,7.661-11.542,15.226-12.6a12.922,12.922,0,0,1,2.429-.152" transform="translate(-36.16 -36.697)" fill="#002078"/>
    <path id="Path_3864" data-name="Path 3864" d="M107.984,120.013c.185-1,.378-2.178.63-3.343a.87.87,0,0,0-.349-.945c-.844-.726-1.668-1.473-2.494-2.217a1.694,1.694,0,0,1-.61-1.955,1.96,1.96,0,0,1,1.742-1.279c1.175-.152,2.346-.334,3.523-.473a1.025,1.025,0,0,0,.88-.61c.463-.894.983-1.764,1.439-2.66a2.161,2.161,0,0,1,3.962.025c.454.9.972,1.768,1.441,2.659a.954.954,0,0,0,.826.567c1.178.133,2.348.317,3.522.476a2,2,0,0,1,1.79,1.323,1.763,1.763,0,0,1-.691,2c-.814.723-1.619,1.454-2.444,2.167a.817.817,0,0,0-.333.887c.223.988.375,1.989.574,2.982a1.824,1.824,0,0,1-.718,2.059,2.226,2.226,0,0,1-2.431.074c-.975-.489-1.983-.924-2.951-1.422a1.162,1.162,0,0,0-1.169.017c-1.087.538-2.172,1.083-3.3,1.55a2,2,0,0,1-2.842-1.88m2.511-.377a23.322,23.322,0,0,0,2.314-1.128,3.218,3.218,0,0,1,3.808-.012,21.188,21.188,0,0,0,2.326,1.118c-.226-1.208-.4-2.269-.63-3.32a1.467,1.467,0,0,1,.547-1.576c.711-.592,1.4-1.206,2.086-1.821.166-.149.489-.262.4-.51-.077-.222-.391-.123-.6-.152-.977-.139-1.955-.275-2.936-.392a1.616,1.616,0,0,1-1.378-.882c-.436-.855-.913-1.694-1.384-2.534-.083-.148-.107-.4-.359-.374-.181.016-.222.222-.3.359-.465.843-.945,1.68-1.382,2.535a1.616,1.616,0,0,1-1.37.894c-1.054.126-2.1.272-3.157.411-.141.019-.33-.026-.4.12-.088.189.119.274.234.376.727.642,1.447,1.291,2.2,1.911a1.545,1.545,0,0,1,.6,1.689c-.239,1.027-.4,2.07-.621,3.288" transform="translate(-89.24 -90.856)" fill="#002078"/>
  </g>
</svg>
