<svg id="Group_496" data-name="Group 496" xmlns="http://www.w3.org/2000/svg" xmlns:xlink="http://www.w3.org/1999/xlink" width="66.13" height="56.957" viewBox="0 0 66.13 56.957">
  <defs>
    <clipPath id="clip-path">
      <rect id="Rectangle_74" data-name="Rectangle 74" width="66.13" height="56.956" fill="#002078"/>
    </clipPath>
  </defs>
  <g id="Group_495" data-name="Group 495" clip-path="url(#clip-path)">
    <path id="Path_3878" data-name="Path 3878" d="M0,6.263A8.286,8.286,0,0,1,2.661,1.772,7.627,7.627,0,0,1,7.083.009c1-.076,1.448.34,1.456,1.349.014,1.732.033,3.464-.009,5.195-.016.659.183.842.837.842q18.711-.028,37.422-.013c.28,0,.561-.012.838.012a.957.957,0,0,1,.944,1.021.965.965,0,0,1-.97,1c-.257.02-.516.009-.774.009H9.471c-.924,0-.926,0-.926.917q0,15.715,0,31.429c0,.216,0,.433,0,.649-.019,1.011-.358,1.369-1.343,1.421A5.494,5.494,0,0,0,7.415,54.82c3.7.028,7.4.006,11.1.012a3.835,3.835,0,0,1,.894.085.945.945,0,0,1,.763,1.053.959.959,0,0,1-.827.943,3.422,3.422,0,0,1-.77.043q-5.323,0-10.646,0a7.577,7.577,0,0,1-7.86-6.213A1.789,1.789,0,0,0,0,50.56V6.263M1.981,44.137A7.324,7.324,0,0,1,5.7,41.973c.586-.127.74-.39.74-.966Q6.418,22.049,6.428,3.092c0-.889-.089-.947-.919-.612A5.59,5.59,0,0,0,1.983,8.007q-.006,17.724,0,35.447v.683" transform="translate(0 0)" fill="#002078"/>
    <path id="Path_3879" data-name="Path 3879" d="M78.5,88.992q0-9.19,0-18.38a5.484,5.484,0,0,1,.027-.778,1.06,1.06,0,0,1,1.128-1.018c.8-.021,1.592-.008,2.388-.008H102.5c1.277,0,1.592.318,1.594,1.616q0,2.923,0,5.845c0,.583-.145,1.093-.764,1.284-.738.228-1.334-.3-1.344-1.2-.017-1.537-.031-3.075.006-4.611.015-.621-.18-.818-.8-.817q-9.906.028-19.811,0c-.588,0-.775.178-.774.778q.023,17.341,0,34.682c0,.552.138.756.721.755q9.97-.027,19.94,0c.662,0,.721-.291.721-.822q-.015-12.243-.006-24.485a4.375,4.375,0,0,1,.036-.841.967.967,0,0,1,.964-.881.991.991,0,0,1,1.066.843,2.779,2.779,0,0,1,.046.645q0,13.055,0,26.109c0,1.141-.375,1.535-1.509,1.536q-11.293.01-22.586,0c-1.124,0-1.5-.4-1.5-1.548q0-9.352,0-18.7" transform="translate(-64.962 -56.864)" fill="#002078"/>
    <path id="Path_3880" data-name="Path 3880" d="M242.965,107.63a2.376,2.376,0,0,1,.2-1.041q5.571-15.4,11.143-30.8c.371-1.026.807-1.254,1.822-.889q3.219,1.158,6.425,2.351c.99.368,1.187.824.832,1.8q-5.533,15.312-11.056,30.628a2.872,2.872,0,0,1-1.387,1.682c-1.4.764-2.751,1.61-4.126,2.417-1.012.594-1.575.385-1.974-.73q-.863-2.412-1.717-4.828c-.085-.242-.137-.5-.162-.592m2.132-.182c.047.168.084.337.141.5.358,1.02.735,2.033,1.074,3.059.142.432.325.479.7.25.861-.532,1.728-1.056,2.614-1.543a1.807,1.807,0,0,0,.859-1.068q2.651-7.384,5.332-14.757c.713-1.971,1.418-3.946,2.145-5.912.159-.43.129-.706-.362-.82a1.7,1.7,0,0,1-.423-.157c-.452-.245-.659-.107-.833.381q-2.828,7.907-5.7,15.8c-.514,1.423-1.021,2.849-1.561,4.262a1.02,1.02,0,0,1-1.337.683,1.063,1.063,0,0,1-.6-1.4c.1-.352.242-.694.366-1.04q3.428-9.482,6.872-18.958c.229-.628-.017-.788-.517-.952s-.852-.378-1.119.369c-2.478,6.941-4.994,13.869-7.5,20.8-.058.161-.1.328-.157.5m13.566-22.142c.315.018.328-.219.39-.388.659-1.8,1.3-3.611,1.971-5.411.143-.387.071-.577-.333-.718q-2.006-.7-3.988-1.468c-.49-.19-.723-.1-.9.419q-.9,2.631-1.889,5.234c-.168.445-.041.6.367.745,1.337.466,2.663.966,3.994,1.452.141.051.283.1.389.134" transform="translate(-201.068 -61.765)" fill="#002078"/>
    <path id="Path_3881" data-name="Path 3881" d="M174.981,67.328q0,11.624,0,23.249c0,1.222-.3,1.52-1.532,1.52H133.056a4.641,4.641,0,0,1-.516-.012,1.036,1.036,0,0,1-1.008-.991,1.011,1.011,0,0,1,.91-1.075,5.682,5.682,0,0,1,.964-.047q19.261,0,38.522,0c1.025,0,1.025,0,1.025-1.014q0-21.723,0-43.446c0-.943,0-.943-.957-.943q-5.291,0-10.582,0a3.209,3.209,0,0,1-.706-.034.932.932,0,0,1-.779-1.036.922.922,0,0,1,.811-.945,3.378,3.378,0,0,1,.643-.027q6.066,0,12.131,0c1.212,0,1.466.26,1.466,1.491q0,11.657,0,23.314" transform="translate(-108.851 -35.141)" fill="#002078"/>
    <path id="Path_3882" data-name="Path 3882" d="M101.5,102.55q0-3.764,0-7.528c0-1,.348-1.368,1.361-1.37q7.512-.014,15.025,0c.882,0,1.232.355,1.32,1.25.023.236.021.475.022.713q0,7.009,0,14.018a6.372,6.372,0,0,1-.024.713c-.094.83-.43,1.143-1.26,1.149-1.4.01-2.794,0-4.191,0q-5.417,0-10.833,0c-1.119,0-1.417-.3-1.418-1.419q0-3.764,0-7.528m2.227-5.3-.139.137v10.529c1.741-1.761,3.373-3.419,5.017-5.067.328-.329.049-.487-.14-.678-1.367-1.379-2.74-2.752-4.1-4.136a10.064,10.064,0,0,1-.636-.785m13.365-.007c-1.693,1.705-3.274,3.322-4.888,4.906-.364.357-.31.548.02.873,1.489,1.468,2.954,2.961,4.431,4.442.114.114.2.289.436.284ZM105.056,95.8c1.692,1.7,3.266,3.263,4.812,4.853.364.375.587.343.934-.014,1.443-1.484,2.913-2.942,4.367-4.415.109-.11.3-.191.235-.424Zm.048,13.519h10.44c-1.726-1.742-3.358-3.39-4.99-5.04-.184-.186-.333-.123-.492.037-1.619,1.635-3.239,3.269-4.958,5" transform="translate(-83.993 -77.394)" fill="#002078"/>
    <path id="Path_3883" data-name="Path 3883" d="M110.435,229.047q3.576,0,7.152,0a3.751,3.751,0,0,1,.706.03,1.04,1.04,0,0,1,.047,2.055,2.83,2.83,0,0,1-.641.041q-7.312,0-14.625,0a2.871,2.871,0,0,1-.764-.074,1.028,1.028,0,0,1,.014-1.985,2.942,2.942,0,0,1,.765-.064q3.673-.007,7.345,0" transform="translate(-84.045 -189.297)" fill="#002078"/>
    <path id="Path_3884" data-name="Path 3884" d="M110.4,208.623c-2.345,0-4.689,0-7.033,0a4.7,4.7,0,0,1-1.024-.09,1.021,1.021,0,0,1,.107-2,3.262,3.262,0,0,1,.515-.018q7.421,0,14.841,0a2.95,2.95,0,0,1,.579.025.944.944,0,0,1,.831.934.923.923,0,0,1-.7,1.036,4.15,4.15,0,0,1-1.085.112c-2.344.009-4.689,0-7.033,0" transform="translate(-84.057 -170.671)" fill="#002078"/>
    <path id="Path_3885" data-name="Path 3885" d="M107.728,253.75c-1.633,0-3.267,0-4.9,0-.8,0-1.24-.351-1.27-.979-.032-.67.4-1.122,1.207-1.127q5.029-.03,10.058,0a1.073,1.073,0,0,1,1.191,1.091c-.024.617-.491,1.008-1.256,1.012-1.676.009-3.353,0-5.029,0" transform="translate(-84.045 -207.96)" fill="#002078"/>
  </g>
</svg>
