<svg id="Group_490" data-name="Group 490" xmlns="http://www.w3.org/2000/svg" xmlns:xlink="http://www.w3.org/1999/xlink" width="56.44" height="57.594" viewBox="0 0 56.44 57.594">
  <defs>
    <clipPath id="clip-path">
      <rect id="Rectangle_71" data-name="Rectangle 71" width="56.44" height="57.594" fill="#002078"/>
    </clipPath>
  </defs>
  <g id="Group_489" data-name="Group 489" clip-path="url(#clip-path)">
    <path id="Path_3865" data-name="Path 3865" d="M5.154,0H51.29a13.563,13.563,0,0,1,1.431.474,5.821,5.821,0,0,1,3.715,5.667q.007,19.749,0,39.5c0,.094,0,.187,0,.281-.079,3.44-2.814,5.918-6.548,5.927-1.587,0-3.173.009-4.759,0-.4,0-.558.054-.387.471a2.663,2.663,0,0,1-.716,3.061c-.382.389-.793.752-1.2,1.119a3.473,3.473,0,0,1-5.092-.023C36.247,55.086,34.76,53.7,33.291,52.3a1.549,1.549,0,0,0-1.174-.461c-2.258.02-4.516.024-6.773,0a1.623,1.623,0,0,0-1.271.515c-1.311,1.307-2.618,2.619-3.982,3.878a5.352,5.352,0,0,1-5.81.872,4.454,4.454,0,0,1-2.736-4.722c.064-.482-.194-.534-.6-.533-1.566,0-3.132.009-4.7,0a6.326,6.326,0,0,1-3.181-.849A5.727,5.727,0,0,1,.011,45.807C-.011,42.96,0,40.114,0,37.267Q0,21.7,0,6.141A5.846,5.846,0,0,1,2.235,1.347,7.657,7.657,0,0,1,5.154,0M2.264,28.226q0,8.878,0,17.755a3.844,3.844,0,0,0,4.016,3.785c2.013.029,4.028.007,6.041.01a1.176,1.176,0,0,0,.835-.265q4.588-4,9.191-7.979c.3-.263.334-.461.017-.736-.591-.514-1.17-1.042-1.723-1.591a.663.663,0,0,0-.892-.152,2.8,2.8,0,0,1-1.89.228c-.706-.154-.759-.1-.518.57a1.8,1.8,0,0,1-.412,2.04c-.524.522-1.064,1.035-1.64,1.508a2.108,2.108,0,0,1-2.772-.021Q10.176,41.286,7.9,39.127a1.723,1.723,0,0,1,.022-2.63c.369-.373.788-.706,1.153-1.083A2.437,2.437,0,0,1,11.86,34.7c.446.159.6.023.5-.424a2.62,2.62,0,0,1,.825-2.635c1.781-1.645,3.528-3.322,5.352-4.925a11.347,11.347,0,0,1,7.749-2.807,1.693,1.693,0,0,1,1.841,1.914,1.834,1.834,0,0,1-.9,1.219,34.05,34.05,0,0,0-3.172,2.372c-.529.454-.529.75-.039,1.241.1.1.2.186.3.281a2.54,2.54,0,0,1,.63,3.38.479.479,0,0,0,.145.681c.656.587,1.31,1.178,1.938,1.791.286.279.483.3.79.019.644-.6,1.307-1.181,2-1.734a.936.936,0,0,0,.37-1.121,7.683,7.683,0,0,1,1.563-7.13,10.72,10.72,0,0,1,8.613-3.86A2.334,2.334,0,0,1,42.7,24.376a2.013,2.013,0,0,1-.648,2.453L39.04,29.614c-.2.186-.417.365-.418.659,0,.637,0,1.273,0,1.91,0,.321.185.478.535.478.529,0,1.059-.02,1.586.009a1.489,1.489,0,0,0,1.185-.451q1.531-1.45,3.106-2.861a2.47,2.47,0,0,1,2.651-.468,2.1,2.1,0,0,1,1.442,2.037,8.88,8.88,0,0,1-.248,2.285C47.853,37.9,43.483,40.97,38.354,40.6c-1.611-.676-2.586.137-3.5,1.215-.309.364-.313.553.033.874q3.571,3.307,7.1,6.648a1.505,1.505,0,0,0,1.124.446c2.278-.015,4.556.005,6.835-.011,2.55-.018,4.226-1.582,4.227-3.936q.005-17.671,0-35.343c0-.8-.016-.812-.9-.812H3.184c-.917,0-.92,0-.92.846q0,8.85,0,17.7M28.19,7.6H53.027c.2,0,.407-.008.61,0,.391.015.553-.157.545-.509-.012-.543.019-1.088-.014-1.629A3.861,3.861,0,0,0,51.006,2.09a9.158,9.158,0,0,0-1.7-.133q-21.084.006-42.167,0c-.2,0-.407,0-.61,0-2.274.091-3.879,1.3-4.213,3.221a9.543,9.543,0,0,0-.051,1.569c-.005.847,0,.849.906.849H28.19M40.274,34.731c-.588,0-1,.023-1.4,0a2.444,2.444,0,0,1-2.513-2.465c-.007-.58.025-1.162-.008-1.741a2.664,2.664,0,0,1,1-2.254c.982-.869,1.93-1.77,2.888-2.663.136-.127.376-.245.284-.455-.108-.243-.39-.166-.6-.145a13.731,13.731,0,0,0-1.626.219c-4.91,1.1-7.26,5.274-5.667,9.116a1.128,1.128,0,0,1-.378,1.416c-.966.83-1.916,1.677-2.889,2.5-.291.247-.31.422-.014.681.635.554,1.235,1.139,1.86,1.7a1.48,1.48,0,0,0,1.841-.033c.66-.636,1.342-1.256,1.96-1.926a1.669,1.669,0,0,1,2-.462,6.64,6.64,0,0,0,2.692.386c4.056-.277,7.265-3.564,7.154-7.309,0-.158.072-.371-.153-.441-.181-.057-.284.117-.394.218-.809.738-1.663,1.441-2.405,2.232a3.978,3.978,0,0,1-3.637,1.427M13.731,52.988a2.551,2.551,0,0,0,1.731,2.367,2.92,2.92,0,0,0,3.132-.641c2.748-2.659,5.475-5.335,8.21-8a.653.653,0,0,0,.264-.542,2.223,2.223,0,0,0-.876-1.867A11.053,11.053,0,0,1,24.72,42.96a.47.47,0,0,0-.76-.016q-4.719,4.112-9.444,8.218a2.24,2.24,0,0,0-.785,1.826M24.714,26.194c-.185-.136-.338-.056-.489-.027a8.363,8.363,0,0,0-4.009,1.92c-1.812,1.615-3.575,3.277-5.359,4.919a.746.746,0,0,0-.122,1.144.977.977,0,0,1-.15,1.511c-.206.207-.453.382-.64.6a1.836,1.836,0,0,1-2.366.525.848.848,0,0,0-1.082.223,2.838,2.838,0,0,1-.474.436c-.358.258-.35.461-.014.76,1.17,1.041,2.325,2.1,3.45,3.179.383.368.646.367.968-.023a4.057,4.057,0,0,1,.505-.487.527.527,0,0,0,.161-.711,1.729,1.729,0,0,1,.717-2.531c.193-.135.347-.316.527-.468a1.165,1.165,0,0,1,1.5-.138,1.014,1.014,0,0,0,1.438-.173c1.048-.995,2.123-1.965,3.184-2.948.846-.783.844-.986-.013-1.795a2.6,2.6,0,0,1,.146-4.237c.693-.569,1.407-1.116,2.122-1.681M42.7,53.3a1.021,1.021,0,0,0-.417-.781q-4.914-4.6-9.825-9.2c-.31-.292-.5-.26-.786.015-.658.636-1.333,1.26-2.029,1.86-.325.281-.345.468-.02.771q4.906,4.567,9.788,9.157a1.242,1.242,0,0,0,.848.389c.654.013,2.441-1.6,2.44-2.21M29.65,42.2c-.023-.192-.212-.292-.351-.421-1.721-1.591-3.438-3.186-5.173-4.765-1.042-.948-.73-1.043-1.922.038-.275.25-.285.449,0,.706q2.941,2.691,5.867,5.4c.1.091.189.2.352.2A4.842,4.842,0,0,0,29.65,42.2m-1,7.579c.445,0,.891,0,1.336,0,.118,0,.264.025.333-.083.079-.125-.055-.2-.135-.279-.408-.388-.826-.768-1.233-1.158a.413.413,0,0,0-.666,0c-.382.385-.776.761-1.161,1.144-.078.078-.207.157-.138.281s.211.089.328.09c.445,0,.89,0,1.336,0" transform="translate(0)" fill="#002078"/>
    <path id="Path_3866" data-name="Path 3866" d="M108.709,90.074a1.169,1.169,0,0,1-.589.934c-.781.537-1.551,1.088-2.343,1.61-.369.243-.387.416-.01.666.823.547,1.639,1.105,2.434,1.686a.955.955,0,0,1,.192,1.561,1.067,1.067,0,0,1-1.387.132c-1.429-.956-2.849-1.924-4.24-2.926a.911.911,0,0,1-.007-1.558c1.39-1,2.8-1.987,4.241-2.926a1.089,1.089,0,0,1,1.711.82" transform="translate(-85.638 -75.693)" fill="#002078"/>
    <path id="Path_3867" data-name="Path 3867" d="M205.684,96.855a1.063,1.063,0,0,1-.963-.692.926.926,0,0,1,.395-1.146c.786-.562,1.588-1.1,2.381-1.658.547-.382.546-.4-.01-.789-.746-.518-1.5-1.027-2.238-1.554-.651-.466-.775-1.056-.352-1.551a1.177,1.177,0,0,1,1.674-.082q1.939,1.313,3.852,2.659c.813.575.81,1.279-.006,1.856-1.257.888-2.531,1.755-3.8,2.629a1.549,1.549,0,0,1-.933.33" transform="translate(-171.282 -75.703)" fill="#002078"/>
    <path id="Path_3868" data-name="Path 3868" d="M164.357,83.939c-.054.212-.137.559-.23.9q-.867,3.214-1.739,6.427a3.383,3.383,0,0,1-.175.537,1.094,1.094,0,0,1-1.236.607.955.955,0,0,1-.85-1.011,4.655,4.655,0,0,1,.188-.934q.873-3.241,1.759-6.48a3.839,3.839,0,0,1,.19-.591,1.118,1.118,0,0,1,1.3-.6,1.051,1.051,0,0,1,.8,1.145" transform="translate(-134.017 -70.337)" fill="#002078"/>
    <path id="Path_3869" data-name="Path 3869" d="M175.735,25.172h7.807c.2,0,.408-.008.609.012a1.022,1.022,0,0,1,1,.9.975.975,0,0,1-.842,1.076,3.477,3.477,0,0,1-.725.07q-7.838.006-15.676,0a3.584,3.584,0,0,1-.725-.071,1.037,1.037,0,0,1-.875-1.012,1.076,1.076,0,0,1,1.013-.963,5.885,5.885,0,0,1,.609-.013h7.808" transform="translate(-139.187 -21.392)" fill="#002078"/>
    <path id="Path_3870" data-name="Path 3870" d="M33.862,25.186c1.051,0,1.569.334,1.565,1.012s-.542,1.038-1.57,1.042a4.12,4.12,0,0,1-.667-.047,1.048,1.048,0,0,1-1-1.027,1.08,1.08,0,0,1,1.121-.979c.182-.011.366,0,.549,0" transform="translate(-26.943 -21.402)" fill="#002078"/>
    <path id="Path_3871" data-name="Path 3871" d="M97.68,25.178c1.08,0,1.571.305,1.587.986.017.709-.521,1.075-1.586,1.076s-1.635-.368-1.639-1.046.548-1.017,1.638-1.017" transform="translate(-80.382 -21.398)" fill="#002078"/>
    <path id="Path_3872" data-name="Path 3872" d="M65.834,27.207a6.812,6.812,0,0,1-.757-.1.987.987,0,0,1,.118-1.953,6.712,6.712,0,0,1,1.215-.017,1.076,1.076,0,0,1,1.088.95,1.056,1.056,0,0,1-.972,1.048c-.218.038-.442.047-.692.071" transform="translate(-53.795 -21.348)" fill="#002078"/>
  </g>
</svg>
