<svg id="Group_441" data-name="Group 441" xmlns="http://www.w3.org/2000/svg" xmlns:xlink="http://www.w3.org/1999/xlink" width="58.63" height="57.509" viewBox="0 0 58.63 57.509">
  <defs>
    <clipPath id="clip-path">
      <rect id="Rectangle_52" data-name="Rectangle 52" width="58.63" height="57.509" fill="#002078"/>
    </clipPath>
  </defs>
  <g id="Group_440" data-name="Group 440" transform="translate(0 0)" clip-path="url(#clip-path)">
    <path id="Path_3851" data-name="Path 3851" d="M388.834,18.043c1.684-1.218,3.227-2.332,4.768-3.448,1.471-1.065,2.935-2.143,4.416-3.193.437-.31.528-.5.032-.878-2.9-2.194-5.775-4.418-8.662-6.629-.135-.1-.263-.316-.449-.227s-.095.328-.1.5c-.013.546.011,1.094-.013,1.64a1.079,1.079,0,0,1-1.1,1.126c-.155.011-.311.005-.467.005H359.621a4.476,4.476,0,0,1-.666-.021,1.079,1.079,0,0,1-.921-1.153,1.045,1.045,0,0,1,.919-1.084,4.4,4.4,0,0,1,.8-.024h25.907c.947,0,.948,0,.948-.966,0-.752.015-1.5,0-2.255a1.244,1.244,0,0,1,.637-1.315,1.281,1.281,0,0,1,1.42.285q3.814,2.938,7.637,5.864,2.3,1.763,4.593,3.526c1.066.824,1.067,1.606-.014,2.391q-6.07,4.41-12.148,8.808a1.353,1.353,0,0,1-1.54.294c-.562-.3-.6-.848-.585-1.418.015-.8-.022-1.6.012-2.391.023-.533-.153-.717-.684-.71-1.869.026-3.739.021-5.608,0a1.128,1.128,0,0,1-1.088-1.629,1.1,1.1,0,0,1,1.086-.647c2.448,0,4.9-.006,7.345.008a1.072,1.072,0,0,1,1.166,1.191c.018.724,0,1.45,0,2.348" transform="translate(-343.057 -0.004)" fill="#002078"/>
    <path id="Path_3852" data-name="Path 3852" d="M107.8,439.526l5.923-4.286c1.108-.8,2.208-1.617,3.326-2.4.409-.288.427-.478.011-.794-2.912-2.214-5.809-4.448-8.714-6.672-.134-.1-.261-.32-.449-.214s-.085.332-.089.5c-.011.5,0,1-.008,1.5a1.119,1.119,0,0,1-1.248,1.254c-.133,0-.267,0-.4,0H78.642c-1.144,0-1.631-.332-1.645-1.118-.014-.814.486-1.164,1.665-1.164h25.974c.935,0,.936,0,.936-.979,0-.661.009-1.321,0-1.982-.011-.629-.033-1.264.646-1.582.627-.293,1.1.053,1.58.421q4,3.082,8.01,6.152c1.353,1.039,2.71,2.072,4.059,3.116,1.06.821,1.054,1.6-.033,2.391q-6.07,4.409-12.148,8.807a1.34,1.34,0,0,1-1.54.282c-.559-.309-.584-.857-.574-1.424.014-.82-.017-1.641.011-2.46.016-.484-.172-.631-.627-.626-1.758.018-3.516.007-5.275.007a5.019,5.019,0,0,1-.6-.013,1.085,1.085,0,0,1-.977-1.1,1.044,1.044,0,0,1,1-1.145q3.839-.037,7.678,0a1.031,1.031,0,0,1,1.019,1.125c.022.745.005,1.491.005,2.406" transform="translate(-73.777 -403.443)" fill="#002078"/>
    <path id="Path_3853" data-name="Path 3853" d="M64.109,861.045l5.914-4.279c1.108-.8,2.209-1.616,3.326-2.405.4-.28.45-.469.023-.794-2.93-2.227-5.845-4.475-8.766-6.714-.118-.091-.231-.267-.4-.183s-.092.286-.094.435c-.01.569.012,1.14-.013,1.708A1.053,1.053,0,0,1,63,849.93q-2.8.029-5.608,0a1.132,1.132,0,0,1,.012-2.264c1.268-.021,2.538-.032,3.805,0,.542.014.7-.189.679-.716-.033-.8,0-1.594-.013-2.391-.013-.6.037-1.159.647-1.445s1.063.022,1.527.378q5.389,4.147,10.787,8.283c.463.355.93.705,1.388,1.067.983.777.983,1.569-.031,2.309q-3.858,2.818-7.734,5.61c-1.507,1.092-3.019,2.179-4.522,3.277a1.293,1.293,0,0,1-1.485.245,1.32,1.32,0,0,1-.577-1.354c.016-.8-.031-1.6.015-2.391.035-.61-.183-.773-.762-.77-4.785.021-9.57.012-14.355.011a6.5,6.5,0,0,1-.734-.014,1.138,1.138,0,0,1,.012-2.257,4.076,4.076,0,0,1,.467-.011q8.045,0,16.091,0c1.179,0,1.5.331,1.5,1.545,0,.61,0,1.22,0,2" transform="translate(-43.171 -806.923)" fill="#002078"/>
    <path id="Path_3854" data-name="Path 3854" d="M773.972,861.058l3.33-2.41c1.944-1.408,3.879-2.827,5.835-4.216.487-.346.51-.545.013-.92-2.862-2.167-5.7-4.365-8.554-6.548-.156-.119-.313-.366-.5-.285-.246.107-.11.405-.119.617-.019.5.007,1-.013,1.5a1.054,1.054,0,0,1-1.077,1.142q-2.837.032-5.675,0a1.131,1.131,0,0,1,.025-2.26c1.2-.024,2.4-.009,3.605-.01.9,0,.9,0,.9-.95,0-.752.014-1.5,0-2.255a1.188,1.188,0,0,1,2.044-1.056q4.91,3.777,9.827,7.543c.837.642,1.68,1.276,2.509,1.929.949.748.945,1.551-.039,2.267q-6.175,4.493-12.366,8.964a1.226,1.226,0,0,1-1.372.2,1.244,1.244,0,0,1-.6-1.27c.016-.842-.026-1.687.014-2.527.028-.583-.194-.732-.734-.729-3.227.02-6.454,0-9.681.014a1.167,1.167,0,0,1-1.3-.822,1.113,1.113,0,0,1,1.127-1.458c1.469-.02,2.938-.007,4.407-.008q3.505,0,7.01,0c1.041,0,1.386.367,1.393,1.448,0,.636,0,1.272,0,2.1" transform="translate(-728.192 -806.936)" fill="#002078"/>
    <path id="Path_3855" data-name="Path 3855" d="M8.606,717.643c-2.445,0-4.89,0-7.336,0A1.143,1.143,0,0,1,.15,717.06a1.121,1.121,0,0,1,.03-1.168,1.1,1.1,0,0,1,1.018-.53q7.4.005,14.8.006a1.136,1.136,0,1,1,.005,2.27c-2.467.012-4.935,0-7.4,0" transform="translate(0 -684.742)" fill="#002078"/>
    <path id="Path_3856" data-name="Path 3856" d="M250.418,270.587q-3.267,0-6.535,0a1.093,1.093,0,0,1-1.051-.589,1.12,1.12,0,0,1,.034-1.168,1.1,1.1,0,0,1,1.02-.526c4.4,0,8.8,0,13.2.007a1.136,1.136,0,1,1,0,2.27c-2.223.013-4.445,0-6.668,0" transform="translate(-232.534 -256.822)" fill="#002078"/>
  </g>
</svg>
