<svg id="Group_494" data-name="Group 494" xmlns="http://www.w3.org/2000/svg" xmlns:xlink="http://www.w3.org/1999/xlink" width="58.27" height="57.853" viewBox="0 0 58.27 57.853">
  <defs>
    <clipPath id="clip-path">
      <rect id="Rectangle_73" data-name="Rectangle 73" width="58.27" height="57.853" fill="#002078"/>
    </clipPath>
  </defs>
  <g id="Group_493" data-name="Group 493" clip-path="url(#clip-path)">
    <path id="Path_3876" data-name="Path 3876" d="M35.825,0a2.224,2.224,0,0,1,.319.138,2.931,2.931,0,0,0,3.065.243,1.412,1.412,0,0,1,1.778.911,2.982,2.982,0,0,1,.183,1.933,15.2,15.2,0,0,1-2.475,5.2c-.245.375-.284.61.045.964a2.678,2.678,0,0,1,.7,2.147.7.7,0,0,0,.326.707q1.279.987,2.525,2.012c.542.449.614.956.246,1.374s-.941.42-1.5-.026q-1.1-.885-2.208-1.763c-.177-.14-.349-.311-.62-.152a8.94,8.94,0,0,1-3.811.975,22.274,22.274,0,0,1-7.2-.406,1.4,1.4,0,0,1-.391-.112c-.74-.441-1.287-.169-1.9.325A33.335,33.335,0,0,0,15.59,25.418,19,19,0,0,0,13.512,33.8c-.014,1.647,0,1.655,1.612,2.165a18.636,18.636,0,0,1,4.042,1.893,13.13,13.13,0,0,0,5.8,1.751q4.13.368,8.243.918a5.354,5.354,0,0,1,4.64,5.243c0,.719,0,.713.7.416q4.737-2.014,9.479-4.018a1.886,1.886,0,0,0,.932-.724,14.051,14.051,0,0,0,2.1-9.138c-.489-5.122-2.963-9.356-6.36-13.174a9.072,9.072,0,0,1-.677-.776.812.812,0,0,1,.13-1.171.856.856,0,0,1,1.215-.021,9.9,9.9,0,0,1,.91.954A25.546,25.546,0,0,1,52.76,30.736a16.645,16.645,0,0,1-.917,9.2,1.25,1.25,0,0,0-.18.654c.411-.168.792-.333,1.181-.481a3.791,3.791,0,0,1,5.149,1.933,3.537,3.537,0,0,1-1.456,4.4Q48.556,51.323,40.571,56.2a10.842,10.842,0,0,1-5.81,1.64c-3.94-.019-7.882-.059-11.821.016a16.5,16.5,0,0,1-6.384-1.14c-2.206-.856-4.456-1.605-6.681-2.417-.383-.14-.551-.178-.63.321a2.6,2.6,0,0,1-2.732,2.16c-1.209.022-2.419.02-3.628,0A2.653,2.653,0,0,1,.012,54.018c-.024-1.034-.006-2.069-.006-3.1q0-7.844,0-15.688A7.093,7.093,0,0,1,.091,34.1a2.521,2.521,0,0,1,2.479-2.078c1.365-.019,2.731-.013,4.1,0a2.5,2.5,0,0,1,2.6,2.381c.026.455.194.583.63.578a6.516,6.516,0,0,1,1.163.1c.484.081.646-.058.622-.551a17.419,17.419,0,0,1,.292-4.322,25.6,25.6,0,0,1,5.6-11.226,40.006,40.006,0,0,1,6.48-6.173,1.28,1.28,0,0,0,.5-.491c-2.623.227-5.1.6-6.717,2.864a.975.975,0,0,1-1.395.375.885.885,0,0,1-.191-1.341,7.385,7.385,0,0,1,3.953-2.942,12.068,12.068,0,0,1,3.478-.7,2.705,2.705,0,0,0,.406-.044c.127-.026.3.006.36-.138s-.092-.234-.184-.321a4.17,4.17,0,0,0-3.455-1.193,8.479,8.479,0,0,1-5.372-1.163c-.6-.347-.765-.863-.478-1.324a.963.963,0,0,1,1.427-.233,6.907,6.907,0,0,0,4.32.909,6.091,6.091,0,0,1,4.674,1.522c.146.124.284.387.527.168.206-.186-.021-.348-.111-.491a19.15,19.15,0,0,1-2.018-3.936,4.394,4.394,0,0,1-.282-2.6A1.652,1.652,0,0,1,25.985.538,1.809,1.809,0,0,0,27.862.453,7.3,7.3,0,0,1,28.8,0h1.522a3.223,3.223,0,0,0,3.93.029c.015-.011.033-.02.049-.029ZM1.916,44.359q0,4.768,0,9.536c0,.809.244,1.038,1.079,1.041q1.609,0,3.218,0c1,0,1.16-.15,1.16-1.106q0-5.078,0-10.156a3.277,3.277,0,0,1,.071-.782.861.861,0,0,1,.985-.7A.876.876,0,0,1,9.269,43a3.31,3.31,0,0,1,.018.563c0,2.652.013,5.3-.01,7.956a.766.766,0,0,0,.626.849c2.4.839,4.81,1.663,7.175,2.588a16.305,16.305,0,0,0,6.328,1.116c3.588-.062,7.178-.027,10.766-.013a10.541,10.541,0,0,0,5.8-1.629c3.072-1.929,6.187-3.794,9.284-5.687,2.092-1.278,4.188-2.551,6.273-3.84a1.739,1.739,0,0,0,.668-2.283,1.718,1.718,0,0,0-2.119-.951,7.674,7.674,0,0,0-1.156.391q-7.66,3.24-15.312,6.5a2.938,2.938,0,0,1-1.188.235c-2.477-.008-4.954,0-7.431,0-.663,0-1.327.014-1.989-.01a.908.908,0,1,1-.084-1.813,4.575,4.575,0,0,1,.642-.023q3.862,0,7.724,0c.259,0,.577.07.631-.324a3.521,3.521,0,0,0-2.928-4.262c-1.9-.3-3.826-.455-5.74-.673-1.47-.167-2.944-.3-4.409-.507a16.578,16.578,0,0,1-5.622-2.292,15.979,15.979,0,0,0-7.273-2.069c-.519-.016-.7.147-.665.641a15.6,15.6,0,0,1,0,1.579.9.9,0,0,1-.864.957A.918.918,0,0,1,7.4,39.118a3.856,3.856,0,0,1-.026-.563c0-1.241,0-2.483,0-3.724,0-.8-.169-.967-.989-.973-1.112-.008-2.224,0-3.335,0-.959,0-1.132.168-1.133,1.08q0,4.711,0,9.423M31.973,8.882a23.312,23.312,0,0,0,4.337-.56.727.727,0,0,0,.476-.382,21.652,21.652,0,0,0,2.166-3.861,4.223,4.223,0,0,0,.368-1.357c.016-.291-.068-.449-.4-.32a3.255,3.255,0,0,1-3.055-.387,1.426,1.426,0,0,0-1.64.028,3.3,3.3,0,0,1-3.733.027,1.582,1.582,0,0,0-1.843.024,3.1,3.1,0,0,1-2.734.365c-.579-.185-.673-.09-.564.507.017.092.047.182.073.273A18.272,18.272,0,0,0,28,8.209a.616.616,0,0,0,.44.24,24.164,24.164,0,0,0,3.528.433m-.04,4.074a18.554,18.554,0,0,0,4.7-.548,1.063,1.063,0,0,0,.9-.973c.1-.9-.526-1.416-1.517-1.213a18.582,18.582,0,0,1-3.233.43,18.973,18.973,0,0,1-4.753-.421c-1.09-.248-1.714.316-1.536,1.321.107.6.574.81,1.114.923a18.832,18.832,0,0,0,4.322.481" transform="translate(0 -0.001)" fill="#002078"/>
    <path id="Path_3877" data-name="Path 3877" d="M178.132,129.552c0-.9-.012-1.8.006-2.706a.687.687,0,0,0-.48-.74,11.721,11.721,0,0,1-1.185-.609,3.431,3.431,0,0,1-1.928-3.415,3.976,3.976,0,0,1,2.73-3.732c.671-.242.963-.526.867-1.195a1.193,1.193,0,0,1,.057-.445.875.875,0,0,1,.954-.741c.511.03.919.36.852.831-.142,1,.355,1.346,1.261,1.516a3.523,3.523,0,0,1,1.532.8.888.888,0,0,1,.241,1.251.951.951,0,0,1-1.342.205,5.151,5.151,0,0,0-1.184-.6c-.3-.089-.479-.079-.476.3.012,1.485.01,2.97,0,4.455a.492.492,0,0,0,.4.54c.242.072.475.17.711.259a4.46,4.46,0,0,1,3.2,4.16,5.2,5.2,0,0,1-3.072,4.642,1.681,1.681,0,0,1-.436.158c-.687.078-.857.447-.817,1.08.059.939-.259,1.345-.905,1.36s-1-.437-.976-1.382c.014-.535-.1-.818-.737-.864a6.088,6.088,0,0,1-2.7-1c-.592-.36-.767-.92-.45-1.381s.826-.513,1.439-.161a5.5,5.5,0,0,0,1.765.724c.458.082.7-.04.683-.545-.025-.92-.007-1.842-.007-2.763m1.911.343c0,.825,0,1.65,0,2.475,0,.288.079.418.42.3a3.287,3.287,0,0,0,1.969-2.841,2.557,2.557,0,0,0-1.852-2.581c-.4-.154-.56-.118-.545.34.025.768.007,1.537.009,2.306m-1.91-7.712c0-.561-.012-1.123,0-1.684.012-.432-.128-.57-.534-.315a2.433,2.433,0,0,0-1.185,2.186,1.953,1.953,0,0,0,1.288,1.723c.289.155.431.118.427-.226-.005-.561,0-1.123,0-1.684" transform="translate(-146.873 -98.481)" fill="#002078"/>
  </g>
</svg>
