<svg id="Group_492" data-name="Group 492" xmlns="http://www.w3.org/2000/svg" xmlns:xlink="http://www.w3.org/1999/xlink" width="66.184" height="57.853" viewBox="0 0 66.184 57.853">
  <defs>
    <clipPath id="clip-path">
      <rect id="Rectangle_72" data-name="Rectangle 72" width="66.184" height="57.853" fill="#002078"/>
    </clipPath>
  </defs>
  <g id="Group_491" data-name="Group 491" clip-path="url(#clip-path)">
    <path id="Path_3873" data-name="Path 3873" d="M22.53,57.853a1.7,1.7,0,0,1-1.177-1.78c.014-.414-.028-.83.009-1.241.049-.536-.178-.726-.8-.72-2.776.023-5.553.011-8.33.008-.279,0-.561,0-.838-.03-.739-.073-1.169-.425-1.153-.923.017-.539.485-.877,1.25-.879,1.744-.006,3.488-.023,5.23.009.608.011.782-.171.765-.68-.036-1.034-.011-2.07-.011-3.1,0-.151,0-.3,0-.452.015-.757.389-1.18,1.047-1.186s1.061.42,1.066,1.166c.008,1.185.041,2.372-.013,3.556-.028.616.265.723.873.7.9-.037.908-.009.908-.714,0-1.675.012-3.35,0-5.025-.016-1.757-1.4-2.987-3.419-3q-6.2-.029-12.4,0c-2,.009-3.428,1.226-3.478,2.982s-.005,3.5-.019,5.25c0,.364.141.5.563.5,1.535-.018,1.275.1,1.29-1.1.013-1.073,0-2.145.005-3.218a.973.973,0,0,1,.988-1.1A.977.977,0,0,1,5.962,47.9c.044,1.241.032,2.484.023,3.725,0,.413.061.675.657.673a.926.926,0,0,1,1,.855.907.907,0,0,1-.947.9A35.349,35.349,0,0,1,1.41,54.04a1.4,1.4,0,0,1-1.389-1.4c-.015-2.183-.045-4.367.01-6.549.055-2.21,2.416-4.243,4.945-4.3,1.549-.037,3.1-.024,4.649-.008.49.005.627-.137.451-.527a.608.608,0,0,1-.059-.161A2.631,2.631,0,0,0,8.4,39.109a4.581,4.581,0,0,1-2.563-4.133,11.053,11.053,0,0,1,.092-2.7,5.236,5.236,0,0,1,3.775-3.9,1.328,1.328,0,0,0,.9-.789A21.943,21.943,0,0,1,21.358,16.705a1,1,0,0,0,.671-1.025c-.026-1.957-.014-3.914-.007-5.871a4.208,4.208,0,0,1,.086-.9.911.911,0,0,1,1.018-.7.925.925,0,0,1,.971.761,3.251,3.251,0,0,1,.023.62c0,3.858.009,7.716-.006,11.574a1.762,1.762,0,0,0,.848,1.558c2.311,1.6,4.607,3.218,6.916,4.821a1.791,1.791,0,0,0,2.481.007c2.325-1.616,4.64-3.243,6.965-4.859a1.677,1.677,0,0,0,.8-1.463q-.013-8.92-.007-17.84c0-1.049-.623-1.606-1.837-1.608q-7.168-.015-14.336,0c-1.217,0-1.81.555-1.823,1.618-.006.508.01,1.017-.007,1.524a1.029,1.029,0,0,1-2.045.141,7.007,7.007,0,0,1,.107-2.7A3.452,3.452,0,0,1,25.609.006Q33.132,0,40.655.007a3.375,3.375,0,0,1,3.487,2.77,9.5,9.5,0,0,1,.078,1.181c.006,3.9.012,7.791-.007,11.687a1,1,0,0,0,.694,1.071,18.167,18.167,0,0,1,2.861,1.635c.606.409.734.919.361,1.365a1.2,1.2,0,0,1-1.6.089c-.566-.343-1.128-.691-1.7-1.026-.151-.088-.311-.268-.51-.155-.154.087-.089.278-.09.424-.005.677-.011,1.355,0,2.032a3.586,3.586,0,0,1-1.771,3.159c-2.176,1.476-4.31,3-6.462,4.5-.235.164-.472.329-.717.481a3.78,3.78,0,0,1-4.262.013c-2.586-1.751-5.122-3.559-7.67-5.352a3.176,3.176,0,0,1-1.32-2.767c-.011-.7-.018-1.393,0-2.089.013-.458-.128-.529-.577-.279a20.211,20.211,0,0,0-8.63,8.84c-.194.369-.107.51.343.622,2.792.691,4.471,2.626,4.483,5.155a11.629,11.629,0,0,1-.066,2.141,5.506,5.506,0,0,1-5.1,4.5c-.586.077-.581.246-.444.642.387,1.125.374,1.128,1.736,1.129s2.712,0,4.068,0c3.032.011,5.14,1.58,5.591,4.209.089.516.227.483.646.248a6.362,6.362,0,0,1,3.154-.682q5.909-.018,11.817,0A6.4,6.4,0,0,1,42.3,46.3c.361.21.434.127.5-.223a5.059,5.059,0,0,1,4.284-4.222,6.444,6.444,0,0,1,1.22-.077c1.593,0,3.186-.024,4.778.009.561.012.848-.16.942-.623a.376.376,0,0,1,.019-.054c.366-.978.366-.978-.743-1.171A5.411,5.411,0,0,1,48.616,35.1a9.775,9.775,0,0,1,.094-2.758,5.359,5.359,0,0,1,4.206-4.095c.737-.2.747-.186.42-.823a18.877,18.877,0,0,0-3.16-4.511c-.111-.115-.219-.233-.319-.355a.844.844,0,0,1,.118-1.313,1.089,1.089,0,0,1,1.483.178,20.521,20.521,0,0,1,2.605,3.221,17.65,17.65,0,0,1,1.607,3.014,1.09,1.09,0,0,0,.768.683,5.161,5.161,0,0,1,3.966,4.913,11.638,11.638,0,0,1-.092,2.59,5.093,5.093,0,0,1-2.977,3.569,1.365,1.365,0,0,0-.914,1.056,1.439,1.439,0,0,1-.056.22c-.34,1.09-.34,1.09.924,1.09,1.162,0,2.325-.006,3.487,0a5.3,5.3,0,0,1,5.262,3.4c.046.125.1.248.145.373v7.565a2.26,2.26,0,0,1-2.255,1.011q-5.353-.005-10.706,0-3.708,0-7.417,0c-.916,0-.917,0-.919.826,0,.376-.01.752,0,1.128a1.7,1.7,0,0,1-1.177,1.778Zm10.59-10.466c-2.045,0-4.09-.006-6.134,0-2.114.008-3.507,1.235-3.516,3.094-.008,1.581,0,3.161,0,4.742,0,.909,0,.887,1.068.9.533.009.722-.148.713-.615-.025-1.223-.021-2.446,0-3.669a1.018,1.018,0,0,1,1.1-1.139c.644.018.992.413.995,1.152.005,1.242.007,2.484,0,3.726,0,.32.044.541.513.539q5.262-.015,10.525,0c.406,0,.531-.159.512-.482-.014-.244,0-.489,0-.734,0-1.092-.011-2.183.009-3.274a.928.928,0,0,1,.922-.925.99.99,0,0,1,1.126.8,2.967,2.967,0,0,1,.047.618c0,1.129.041,2.259-.011,3.387-.034.725.492.586.975.61.519.026.842-.026.826-.618-.044-1.655-.011-3.312-.017-4.967-.006-1.932-1.385-3.145-3.582-3.151-2.023-.005-4.046,0-6.07,0m21.353,4.9c1.657,0,3.315-.021,4.972.011.616.012.832-.154.818-.7-.031-1.241-.027-2.484.022-3.725a1.032,1.032,0,1,1,2.063.086c.008,1.091-.006,2.183.005,3.274.012,1.158-.221,1.043,1.268,1.06.4,0,.588-.1.585-.478-.016-1.731.028-3.463-.019-5.194a3.147,3.147,0,0,0-3.393-3.053q-6.3-.047-12.592,0a3.089,3.089,0,0,0-3.3,2.69c-.045,1.843-.017,3.688-.017,5.532,0,.147-.04.347.133.413a2.641,2.641,0,0,0,1.392.046c.367-.063.231-.4.234-.629.014-1.261-.007-2.522.019-3.782a.966.966,0,0,1,1.032-.96,1,1,0,0,1,1.061.941,4.881,4.881,0,0,1,.009.508c0,1.129.018,2.258-.008,3.387-.01.444.17.59.674.583,1.679-.021,3.358-.008,5.037-.008M7.947,34.053c0,.357-.016.715,0,1.071.091,1.778,1.756,3.106,3.85,3.082a3.534,3.534,0,0,0,3.722-3.151q.028-.986,0-1.973a3.53,3.53,0,0,0-3.291-3.191,3.846,3.846,0,0,0-4.205,2.477,6.414,6.414,0,0,0-.081,1.685m50.352.029h0c0-.319.009-.639,0-.958a3.834,3.834,0,0,0-7.584.043q-.016.9,0,1.8a3.525,3.525,0,0,0,3.758,3.236A3.521,3.521,0,0,0,58.3,35.039c.013-.319,0-.639,0-.958" transform="translate(0 0)" fill="#002078"/>
    <path id="Path_3874" data-name="Path 3874" d="M166.713,52.742a1.34,1.34,0,0,1-.441,1,.855.855,0,0,1-.175.165,2.808,2.808,0,0,0-1.3,3.553,1.341,1.341,0,0,1-.652,1.547,1.7,1.7,0,0,1-1.875.077,3.827,3.827,0,0,0-4.357,0,1.707,1.707,0,0,1-1.876-.067,1.394,1.394,0,0,1-.673-1.543c.075-.388.07-.79.16-1.175a1.5,1.5,0,0,0-.678-1.692,7.29,7.29,0,0,1-.937-.855c-.9-.937-.455-2.161.895-2.472a14.4,14.4,0,0,1,1.57-.319,1.683,1.683,0,0,0,1.435-.893,9.148,9.148,0,0,1,.849-1.264,1.775,1.775,0,0,1,2.848-.01,17.3,17.3,0,0,1,1.019,1.5,1.252,1.252,0,0,0,.944.6c.654.108,1.3.242,1.948.393a1.462,1.462,0,0,1,1.3,1.456M157.539,56.7c-.012.514.036.56.543.3a3.419,3.419,0,0,1,3.6-.181c.248.151.614.432.853.27.257-.174.074-.56.016-.85a2.233,2.233,0,0,1,.9-2.539,2.018,2.018,0,0,0,.311-.284c.134-.142.422-.252.375-.426-.063-.23-.389-.177-.608-.214-1.158-.2-2.218-.445-2.805-1.531-.556-1.028-.685-1.013-1.3,0a2.715,2.715,0,0,1-2.172,1.4,3.165,3.165,0,0,0-.5.1c-.243.067-.625,0-.7.2-.1.243.253.407.451.547a2.445,2.445,0,0,1,1.073,2.914,1.465,1.465,0,0,0-.035.288" transform="translate(-126.962 -40.827)" fill="#002078"/>
    <path id="Path_3875" data-name="Path 3875" d="M157.4,217.067a5.244,5.244,0,0,1,1.9-4.513,6.186,6.186,0,0,1,6.209-1.065,5.043,5.043,0,0,1,3.718,4.421,9.013,9.013,0,0,1-.139,3.252,5.861,5.861,0,0,1-6.223,3.956,5.562,5.562,0,0,1-5.362-4.759c-.037-.43-.068-.861-.1-1.292m2.132-.076c0,.408-.01.709,0,1.009a3.553,3.553,0,0,0,3.352,3.266c2.179.148,3.814-.9,4.222-2.72a8.482,8.482,0,0,0,.066-2.473,3.547,3.547,0,0,0-3.462-3.111,3.718,3.718,0,0,0-4.1,2.731,7,7,0,0,0-.077,1.3" transform="translate(-130.242 -179.247)" fill="#002078"/>
  </g>
</svg>
