<svg xmlns="http://www.w3.org/2000/svg" width="35" height="34" viewBox="0 0 35 34">
  <g id="Group_372" data-name="Group 372" transform="translate(0.203 -0.478)">
    <g id="Ellipse_16" data-name="Ellipse 16" transform="translate(-0.203 0.478)" fill="none" stroke="#fff" stroke-width="1">
      <ellipse cx="17.5" cy="17" rx="17.5" ry="17" stroke="none"/>
      <ellipse cx="17.5" cy="17" rx="17" ry="16.5" fill="none"/>
    </g>
    <path id="Icon_metro-twitter" data-name="Icon metro-twitter" d="M19.392,6.436a6.9,6.9,0,0,1-1.982.543A3.462,3.462,0,0,0,18.928,5.07a6.909,6.909,0,0,1-2.192.837,3.454,3.454,0,0,0-5.881,3.148A9.8,9.8,0,0,1,3.742,5.449,3.455,3.455,0,0,0,4.81,10.057a3.437,3.437,0,0,1-1.563-.432c0,.014,0,.029,0,.043a3.453,3.453,0,0,0,2.768,3.384,3.457,3.457,0,0,1-1.559.059,3.455,3.455,0,0,0,3.224,2.4,6.924,6.924,0,0,1-4.286,1.477,7,7,0,0,1-.823-.048A9.815,9.815,0,0,0,17.68,8.669q0-.224-.01-.446a7.011,7.011,0,0,0,1.722-1.786Z" transform="translate(6.258 5.586)" fill="#fff"/>
  </g>
</svg>
