<svg xmlns="http://www.w3.org/2000/svg" width="210" height="73.8" viewBox="0 0 210 73.8">
  <g id="Group_725" data-name="Group 725" transform="translate(216.995 -155.386)">
    <g id="Group_723" data-name="Group 723" transform="translate(-216.995 155.386)">
      <path id="Path_5062" data-name="Path 5062" d="M61.712,0l-.036.036L61.639,0,55.481,6.157l.036.036L48.309,13.4l6.158,6.158,7.208-7.208,7.208,7.208L75.041,13.4,67.833,6.194l.036-.036Z" transform="translate(-39.235 0.001)" fill="#09f"/>
      <path id="Path_5063" data-name="Path 5063" d="M56.256,314.232a29.82,29.82,0,0,1-36.756,0l8.41,8.41-.059.059,9.968,9.969.059-.059.059.059,9.968-9.969-.059-.059Z" transform="translate(-15.502 -262.002)" fill="#09f"/>
      <path id="Path_5064" data-name="Path 5064" d="M-43.56,102.17A22.465,22.465,0,0,1-66,79.73a22.36,22.36,0,0,1,6.035-15.305l5.845,5.455A14.39,14.39,0,0,0-58,79.73,14.461,14.461,0,0,0-43.56,94.175,14.461,14.461,0,0,0-29.116,79.73,14.366,14.366,0,0,0-33.2,69.675l5.738-5.569A22.321,22.321,0,0,1-21.12,79.73,22.465,22.465,0,0,1-43.56,102.17Z" transform="translate(66 -46.975)" fill="#fff"/>
      <rect id="Rectangle_225" data-name="Rectangle 225" width="43.755" height="73.8" transform="translate(0.562 0)" fill="none"/>
    </g>
    <g id="Group_724" data-name="Group 724" transform="translate(-160.01 166.3)">
      <path id="Subtraction_1" data-name="Subtraction 1" d="M14.467,28.934a16.832,16.832,0,0,1-3-.261c-.475-.087-.946-.2-1.4-.326a13.672,13.672,0,0,1-1.331-.456,13.173,13.173,0,0,1-2.457-1.3,13.747,13.747,0,0,1-1.126-.848c-.362-.3-.718-.632-1.058-.978A14.781,14.781,0,0,1,2.3,22.552a13.706,13.706,0,0,1-.7-1.2A13.552,13.552,0,0,1,1.023,20.1a13.825,13.825,0,0,1-.448-1.317c-.127-.447-.235-.911-.32-1.378a17.1,17.1,0,0,1,0-5.893c.085-.469.192-.935.32-1.383a13.832,13.832,0,0,1,.448-1.321A13.467,13.467,0,0,1,2.3,6.355c.255-.386.534-.767.832-1.132s.62-.725.959-1.07.7-.672,1.058-.973a13.736,13.736,0,0,1,1.126-.844,13.2,13.2,0,0,1,2.457-1.3A13.724,13.724,0,0,1,10.065.584c.453-.129.924-.238,1.4-.324a16.909,16.909,0,0,1,3-.26,15.379,15.379,0,0,1,1.852.111A14.3,14.3,0,0,1,18.1.442a13.933,13.933,0,0,1,1.708.553,14.391,14.391,0,0,1,3.147,1.736A13.09,13.09,0,0,1,24.289,3.85a12.674,12.674,0,0,1,1.159,1.276,12.968,12.968,0,0,1,.982,1.432L21.7,9.3a7.564,7.564,0,0,0-.571-.883,7.233,7.233,0,0,0-.681-.781,7.354,7.354,0,0,0-.79-.679,7.935,7.935,0,0,0-.9-.578,8.21,8.21,0,0,0-.984-.461,8.382,8.382,0,0,0-1.043-.329,9.522,9.522,0,0,0-2.265-.263,11.318,11.318,0,0,0-1.929.159,9.068,9.068,0,0,0-1.733.477,8.091,8.091,0,0,0-1.536.795,8.261,8.261,0,0,0-1.34,1.113A8.514,8.514,0,0,0,6.842,9.236a8.4,8.4,0,0,0-.776,1.555A9.4,9.4,0,0,0,5.6,12.534a11.65,11.65,0,0,0-.155,1.933A11.453,11.453,0,0,0,5.6,16.382a9.31,9.31,0,0,0,.466,1.731,8.387,8.387,0,0,0,.776,1.548,8.569,8.569,0,0,0,1.087,1.364,8.262,8.262,0,0,0,1.34,1.113,8.091,8.091,0,0,0,1.536.795,9.068,9.068,0,0,0,1.733.477,11.318,11.318,0,0,0,1.929.159,9.584,9.584,0,0,0,2.27-.263,8.529,8.529,0,0,0,1.05-.329,8.394,8.394,0,0,0,.992-.461,8.019,8.019,0,0,0,.905-.575,7.227,7.227,0,0,0,.789-.672,6.913,6.913,0,0,0,.672-.769,7.065,7.065,0,0,0,.555-.866l4.73,2.742a13.072,13.072,0,0,1-.981,1.432,12.73,12.73,0,0,1-1.155,1.276A13.1,13.1,0,0,1,22.965,26.2a14.2,14.2,0,0,1-1.5.963,14,14,0,0,1-1.63.774,13.815,13.815,0,0,1-1.709.553,14.347,14.347,0,0,1-1.789.332A15.622,15.622,0,0,1,14.467,28.934Zm33.345-.556H41.89l-5.624-9.658H32.113v9.658H26.629V.556H37.757a10,10,0,0,1,1.856.169,8.653,8.653,0,0,1,3.279,1.351A10.092,10.092,0,0,1,45.5,4.68a8.609,8.609,0,0,1,1.351,3.259,9.825,9.825,0,0,1,.169,1.838,8.707,8.707,0,0,1-.092,1.268,8.309,8.309,0,0,1-.276,1.221,8.484,8.484,0,0,1-.459,1.174,9.245,9.245,0,0,1-.643,1.126,9.629,9.629,0,0,1-.795,1.034A9.07,9.07,0,0,1,42.8,17.259a9.774,9.774,0,0,1-1.153.625l6.16,10.493ZM32.113,5.683V13.91h5.644a3.641,3.641,0,0,0,.748-.076,3.331,3.331,0,0,0,.693-.227,3.51,3.51,0,0,0,.638-.379,4.2,4.2,0,0,0,.584-.53,4.366,4.366,0,0,0,.487-.637,4.035,4.035,0,0,0,.348-.7,4.167,4.167,0,0,0,.209-.761,4.9,4.9,0,0,0,0-1.646,4.11,4.11,0,0,0-.209-.758,3.949,3.949,0,0,0-.348-.693,4.254,4.254,0,0,0-.487-.628,4.18,4.18,0,0,0-.584-.522,3.523,3.523,0,0,0-.638-.373,3.371,3.371,0,0,0-.693-.224,3.7,3.7,0,0,0-.748-.075ZM90.02,28.377H84.46L82.691,23.37H71.263l-1.669,5.008H47.852V16.911h5.485v6.22H65.061v1.277L73.409.556h6.8L90.02,28.377ZM76.865,6.876,73.05,18.243h7.83Zm76.15,21.5H135.805V16.911h5.485v6.22h11.725v5.246Zm-41.731,0H105.8V5.8H98.406V28.377H92.922V5.8H85.45V.556h31.318l6.8,21.389L130.321.556h22.5V5.8H141.29v5.891h-5.485v-9.6l-8.863,26.288h-6.8l-8.862-26.4v26.4Zm40.539-11.486H141.3V11.725h10.519v5.167Zm-87.954,0H53.377V11.725H63.869v5.167Zm-10.532-5.2H47.852V.556h17.01V5.8H53.337v5.891Z" transform="translate(0 6.709)" fill="#fff"/>
      <rect id="Rectangle_228" data-name="Rectangle 228" width="5.709" height="5.213" transform="translate(105.678 0)" fill="#09f"/>
      <text id="SOLUTIONS" transform="translate(43.621 48.972)" fill="#09f" font-size="11" font-family="SegoeUI-Light, Segoe UI" font-weight="300"><tspan x="0" y="0">SOLUTIONS</tspan></text>
    </g>
  </g>
</svg>
